<svg id="Grupo_10" data-name="Grupo 10" xmlns="http://www.w3.org/2000/svg" width="22.548" height="13.153" viewBox="0 0 22.548 13.153">
  <rect id="Rectángulo_198" data-name="Rectángulo 198" width="22.548" height="13.153" transform="translate(0 0)" fill="#fff"/>
  <rect id="Rectángulo_199" data-name="Rectángulo 199" width="6.577" height="13.153" transform="translate(0 0)" fill="#2530a9"/>
  <rect id="Rectángulo_200" data-name="Rectángulo 200" width="22.548" height="6.577" transform="translate(0 6.576)" fill="#d91023"/>
  <path id="Trazado_342" data-name="Trazado 342" d="M413.031,144.132l-.509,1.565.782.254Z" transform="translate(-409.74 -142.489)" fill="#fff"/>
  <path id="Trazado_343" data-name="Trazado 343" d="M413.145,144.132l.507,1.565-.782.254Z" transform="translate(-409.854 -142.489)" fill="#fff"/>
  <path id="Trazado_344" data-name="Trazado 344" d="M414.8,145.823H413.16v.823Z" transform="translate(-409.949 -143.044)" fill="#fff"/>
  <path id="Trazado_345" data-name="Trazado 345" d="M414.718,145.823l-1.331.967-.481-.666Z" transform="translate(-409.866 -143.044)" fill="#fff"/>
  <path id="Trazado_346" data-name="Trazado 346" d="M410.949,145.823l1.332.967.482-.666Z" transform="translate(-409.224 -143.044)" fill="#fff"/>
  <path id="Trazado_347" data-name="Trazado 347" d="M410.949,145.823h1.645v.823Z" transform="translate(-409.224 -143.044)" fill="#fff"/>
  <path id="Trazado_348" data-name="Trazado 348" d="M414.085,147.8l-.506-1.563-.782.254Z" transform="translate(-409.83 -143.178)" fill="#fff"/>
  <path id="Trazado_349" data-name="Trazado 349" d="M414.065,147.763l-1.331-.966.485-.663Z" transform="translate(-409.81 -143.146)" fill="#fff"/>
  <path id="Trazado_350" data-name="Trazado 350" d="M411.84,147.763l1.331-.966-.485-.663Z" transform="translate(-409.516 -143.146)" fill="#fff"/>
  <path id="Trazado_351" data-name="Trazado 351" d="M411.84,147.8l.507-1.563.782.254Z" transform="translate(-409.516 -143.178)" fill="#fff"/>
</svg>
