<svg id="Grupo_110" data-name="Grupo 110" xmlns="http://www.w3.org/2000/svg" width="184.824" height="184.921" viewBox="0 0 184.824 184.921">
  <path id="Trazado_475" data-name="Trazado 475" d="M175.709,277.307V163.332a3.081,3.081,0,0,0-3.08-3.08h-30.8a3.081,3.081,0,0,0-3.08,3.08V277.307h-6.161V206.458a3.081,3.081,0,0,0-3.08-3.08H98.7a3.081,3.081,0,0,0-3.08,3.08v70.849H89.458V175.654a3.081,3.081,0,0,0-3.08-3.08h-30.8a3.081,3.081,0,0,0-3.08,3.08V277.307H46.332V218.78a3.081,3.081,0,0,0-3.08-3.08h-30.8a3.081,3.081,0,0,0-3.08,3.08v58.528H.126v6.161H184.95v-6.161Zm-135.538,0H15.528V221.86H40.171Zm43.126,0H58.654V178.734H83.3Zm43.126,0H101.779V209.538h24.643Zm43.126,0H144.9V166.413h24.643Z" transform="translate(-0.126 -98.547)" fill="#4d4d4d"/>
  <path id="Trazado_476" data-name="Trazado 476" d="M39.029,83.795A15.4,15.4,0,0,0,60.372,62.454l21.8-21.806a15.245,15.245,0,0,0,8.443,2.575,15.459,15.459,0,0,0,2.7-.237,15.292,15.292,0,0,0,7.818-3.906l18.276,14.05a15.4,15.4,0,1,0,27.206-3l21.8-21.8a15.448,15.448,0,1,0-4.356-4.356l-21.8,21.8a15.4,15.4,0,0,0-19.382,1.956c-.059.059-.092.126-.148.182L104.727,34.068A15.4,15.4,0,1,0,77.81,36.3L56.016,58.1a15.4,15.4,0,1,0-16.987,25.7ZM176.9,6.258a9.241,9.241,0,1,1-9.241,9.241A9.241,9.241,0,0,1,176.9,6.258ZM127.237,52.092a9.242,9.242,0,1,1,13.071,13.069,9.47,9.47,0,0,1-13.067,0A9.241,9.241,0,0,1,127.237,52.092ZM83.08,22.52h0a9.183,9.183,0,0,1,5.964-3.8,9.639,9.639,0,0,1,1.623-.139A9.242,9.242,0,1,1,83.08,22.52ZM40.986,64.414l0,0A9.242,9.242,0,1,1,54.057,77.483a9.47,9.47,0,0,1-13.067,0A9.241,9.241,0,0,1,40.986,64.414Z" transform="translate(-19.8 0)" fill="#4d4d4d"/>
</svg>
