<svg xmlns="http://www.w3.org/2000/svg" width="184.831" height="184.831" viewBox="0 0 184.831 184.831">
  <g id="market" transform="translate(-1 -1)">
    <path id="Trazado_485" data-name="Trazado 485" d="M176.888,18.887h-5.962V15.906a8.954,8.954,0,0,0-8.943-8.943H129.189A5.968,5.968,0,0,0,123.227,1H63.6a5.968,5.968,0,0,0-5.962,5.962H24.849a8.954,8.954,0,0,0-8.943,8.943v2.981H9.943A8.954,8.954,0,0,0,1,27.83V60.623a11.912,11.912,0,0,0,8.943,11.5v89.858A8.954,8.954,0,0,0,1,170.925V182.85a2.98,2.98,0,0,0,2.981,2.981H182.85a2.98,2.98,0,0,0,2.981-2.981V170.925a8.954,8.954,0,0,0-8.943-8.943V72.124a11.912,11.912,0,0,0,8.943-11.5V27.83A8.954,8.954,0,0,0,176.888,18.887Zm-14.906-5.962a2.984,2.984,0,0,1,2.981,2.981v2.981H129.189V12.925ZM63.6,6.962h59.623l0,23.849H63.6ZM21.868,15.906a2.984,2.984,0,0,1,2.981-2.981H57.642v5.962H21.868ZM9.943,24.849h47.7v5.962A5.968,5.968,0,0,0,63.6,36.774h59.623a5.968,5.968,0,0,0,5.962-5.962V24.849h47.7a2.984,2.984,0,0,1,2.981,2.981V42.736H6.962V27.83A2.984,2.984,0,0,1,9.943,24.849ZM150.057,48.7h11.925V60.623a5.962,5.962,0,1,1-11.925,0Zm-17.887,0H144.1V60.623a5.962,5.962,0,1,1-11.925,0Zm-17.887,0h11.925V60.623a5.962,5.962,0,1,1-11.925,0ZM96.4,48.7h11.925V60.623a5.962,5.962,0,1,1-11.925,0Zm-17.887,0H90.434V60.623a5.962,5.962,0,1,1-11.925,0Zm-17.887,0H72.548V60.623a5.962,5.962,0,1,1-11.925,0Zm-17.887,0H54.661V60.623a5.962,5.962,0,1,1-11.925,0Zm-17.887,0H36.774V60.623a5.962,5.962,0,1,1-11.925,0ZM6.962,60.623V48.7H18.887V60.623a5.962,5.962,0,1,1-11.925,0ZM15.906,96.4H99.378v41.736H15.906Zm83.472-5.962H15.906V84.472H99.378ZM15.906,144.1H99.378v17.887H15.906Zm163.963,26.83v8.943H6.962v-8.943a2.984,2.984,0,0,1,2.981-2.981H176.888A2.984,2.984,0,0,1,179.869,170.925ZM159,90.434H117.265V84.472H159ZM117.265,96.4H159v65.585H117.265Zm47.7,65.585V81.491a2.98,2.98,0,0,0-2.981-2.981h-47.7a2.98,2.98,0,0,0-2.981,2.981v80.491H105.34V81.491a2.98,2.98,0,0,0-2.981-2.981H15.906V72.124a11.852,11.852,0,0,0,5.962-3.7,11.767,11.767,0,0,0,17.887,0,11.767,11.767,0,0,0,17.887,0,11.767,11.767,0,0,0,17.887,0,11.767,11.767,0,0,0,17.887,0,11.767,11.767,0,0,0,17.887,0,11.767,11.767,0,0,0,17.887,0,11.767,11.767,0,0,0,17.887,0,11.767,11.767,0,0,0,17.887,0,11.852,11.852,0,0,0,5.962,3.7v89.858ZM179.869,60.623a5.962,5.962,0,1,1-11.925,0V48.7h11.925Z" fill="#4d4d4d"/>
    <path id="Trazado_486" data-name="Trazado 486" d="M0,0H29.51V5.962H0Z" transform="translate(25.706 127.072) rotate(-45)" fill="#4d4d4d"/>
    <path id="Trazado_487" data-name="Trazado 487" d="M0,0H29.51V5.962H0Z" transform="translate(52.533 127.075) rotate(-45)" fill="#4d4d4d"/>
    <path id="Trazado_488" data-name="Trazado 488" d="M62.755,4H32.943a8.943,8.943,0,1,0,0,17.887H62.755A8.943,8.943,0,0,0,62.755,4Zm0,11.925H32.943a2.981,2.981,0,0,1,0-5.962H62.755a2.981,2.981,0,1,1,0,5.962Z" transform="translate(45.566 5.943)" fill="#4d4d4d"/>
    <circle id="Elipse_9" data-name="Elipse 9" cx="6" cy="6" r="6" transform="translate(120 117)" fill="#4d4d4d"/>
  </g>
</svg>
