<svg xmlns="http://www.w3.org/2000/svg" width="191.299" height="184.921" viewBox="0 0 191.299 184.921">
  <g id="money" transform="translate(0 -7.982)">
    <g id="Grupo_114" data-name="Grupo 114" transform="translate(0 68.719)">
      <g id="Grupo_113" data-name="Grupo 113">
        <path id="Trazado_477" data-name="Trazado 477" d="M162.542,160.017H2.739A2.736,2.736,0,0,0,0,162.75v76.709A2.736,2.736,0,0,0,2.733,242.2H111.4a2.739,2.739,0,1,0,0-5.478H5.478V165.495H159.8v6.849a2.736,2.736,0,0,0,2.733,2.739h.006a2.736,2.736,0,0,0,2.739-2.733v-9.594A2.736,2.736,0,0,0,162.542,160.017Z" transform="translate(0 -160.017)" fill="#4d4d4d"/>
      </g>
    </g>
    <g id="Grupo_116" data-name="Grupo 116" transform="translate(6.39 27.172)">
      <g id="Grupo_115" data-name="Grupo 115">
        <path id="Trazado_478" data-name="Trazado 478" d="M153.566,84.849,25.729,56.085a2.739,2.739,0,0,0-3.276,2.077L16.061,86.926a2.74,2.74,0,1,0,5.35,1.189l5.794-26.082L152.364,90.192a2.583,2.583,0,0,0,.6.067,2.739,2.739,0,0,0,.6-5.411Z" transform="translate(-15.995 -56.019)" fill="#4d4d4d"/>
      </g>
    </g>
    <g id="Grupo_118" data-name="Grupo 118" transform="translate(41.497 7.982)">
      <g id="Grupo_117" data-name="Grupo 117">
        <path id="Trazado_479" data-name="Trazado 479" d="M190.816,40.153l-76.7-31.959A2.749,2.749,0,0,0,110.6,9.5l-6.392,12.784a2.748,2.748,0,0,0,4.835,2.614q.043-.078.08-.16v.006l5.245-10.5L188.7,45.222a2.746,2.746,0,1,0,2.116-5.068Z" transform="translate(-103.875 -7.982)" fill="#4d4d4d"/>
      </g>
    </g>
    <g id="Grupo_120" data-name="Grupo 120" transform="translate(102.27 81.502)">
      <g id="Grupo_119" data-name="Grupo 119">
        <path id="Trazado_480" data-name="Trazado 480" d="M284.105,192.017H258.739a2.739,2.739,0,1,0,0,5.478h25.366a2.739,2.739,0,0,0,0-5.478Z" transform="translate(-256 -192.017)" fill="#4d4d4d"/>
      </g>
    </g>
    <g id="Grupo_122" data-name="Grupo 122" transform="translate(51.317 81.685)">
      <g id="Grupo_121" data-name="Grupo 121">
        <path id="Trazado_481" data-name="Trazado 481" d="M156.58,192.473A28.124,28.124,0,1,0,184.7,220.6,28.124,28.124,0,0,0,156.58,192.473Zm0,51.135A23.011,23.011,0,1,1,179.591,220.6,23.011,23.011,0,0,1,156.58,243.608Z" transform="translate(-128.456 -192.473)" fill="#4d4d4d"/>
      </g>
    </g>
    <g id="Grupo_124" data-name="Grupo 124" transform="translate(120.988 90.633)">
      <g id="Grupo_123" data-name="Grupo 123">
        <path id="Trazado_482" data-name="Trazado 482" d="M338.011,214.873c-16.938,0-35.155,4-35.155,12.784v76.7c0,8.782,18.217,12.784,35.155,12.784s35.155-4,35.155-12.784v-76.7C373.167,218.874,354.95,214.873,338.011,214.873Zm28.763,89.438c-.483,1.774-10.067,6.44-28.763,6.44s-28.281-4.666-28.763-6.392v-5.024c6.8,3.426,18.035,5.024,28.763,5.024s21.966-1.614,28.763-5.027Zm0-12.784c-.483,1.774-10.067,6.44-28.763,6.44s-28.281-4.666-28.763-6.392v-5.024c6.8,3.426,18.035,5.024,28.763,5.024s21.966-1.614,28.763-5.027Zm0-12.784c-.483,1.774-10.067,6.44-28.763,6.44s-28.281-4.666-28.763-6.392v-5.024c6.8,3.426,18.035,5.024,28.763,5.024s21.966-1.614,28.763-5.027Zm0-12.784c-.483,1.774-10.067,6.44-28.763,6.44s-28.281-4.666-28.763-6.392v-5.024c6.8,3.426,18.035,5.024,28.763,5.024s21.966-1.614,28.763-5.027Zm0-12.784c-.483,1.774-10.067,6.44-28.763,6.44s-28.281-4.666-28.763-6.392V248.2c6.8,3.41,18.035,5.024,28.763,5.024s21.966-1.614,28.763-5.027Zm0-12.784c-.483,1.774-10.067,6.44-28.763,6.44s-28.281-4.666-28.763-6.392v-5.024c6.8,3.41,18.035,5.024,28.763,5.024s21.966-1.614,28.763-5.027Zm-28.763-6.344c-18.667,0-28.249-4.653-28.763-6.334V227.7c.514-1.78,10.1-6.43,28.763-6.43,18.536,0,28.124,4.583,28.763,6.392C366.135,229.466,356.548,234.049,338.011,234.049Z" transform="translate(-302.856 -214.873)" fill="#4d4d4d"/>
      </g>
    </g>
    <g id="Grupo_126" data-name="Grupo 126" transform="translate(12.781 81.502)">
      <g id="Grupo_125" data-name="Grupo 125">
        <path id="Trazado_483" data-name="Trazado 483" d="M73.085,243.149H48.927L37.473,230.621V209.847l12.65-12.352H73.085a2.739,2.739,0,0,0,0-5.478H49.01a2.742,2.742,0,0,0-1.918.777L32.817,206.718a3.433,3.433,0,0,0-.825,2.237v22.729a2.741,2.741,0,0,0,.716,1.847l12.985,14.2a2.738,2.738,0,0,0,2.023.892H73.085a2.739,2.739,0,0,0,0-5.478Z" transform="translate(-31.992 -192.017)" fill="#4d4d4d"/>
      </g>
    </g>
    <g id="Grupo_128" data-name="Grupo 128" transform="translate(69.854 95.427)">
      <g id="Grupo_127" data-name="Grupo 127">
        <path id="Trazado_484" data-name="Trazado 484" d="M186.042,238.059h-3.2c-.994,0-1.6-.556-1.6-.8s.6-.8,1.6-.8h7.99a3.2,3.2,0,0,0,0-6.392h-3.2a3.2,3.2,0,1,0-6.392,0v.144a7.44,7.44,0,0,0-6.392,7.031,7.632,7.632,0,0,0,7.99,7.207h3.2c.994,0,1.6.556,1.6.8s-.6.8-1.6.8h-7.99a3.2,3.2,0,1,0,0,6.392h3.2a3.2,3.2,0,0,0,6.392,0V252.3a7.44,7.44,0,0,0,6.392-7.031A7.632,7.632,0,0,0,186.042,238.059Z" transform="translate(-174.856 -226.873)" fill="#4d4d4d"/>
      </g>
    </g>
  </g>
</svg>
